<svg width="17" height="17" viewBox="0 0 17 17" fill="none" xmlns="http://www.w3.org/2000/svg">
<path fill-rule="evenodd" clip-rule="evenodd" d="M1.89937 0.944336C1.325 0.944336 0.859375 1.40996 0.859375 1.98434V15.1043C0.859375 15.6787 1.325 16.1443 1.89937 16.1443H15.0194C15.5938 16.1443 16.0594 15.6787 16.0594 15.1043V1.98434C16.0594 1.40996 15.5938 0.944336 15.0194 0.944336H1.89937ZM3.85268 4.64639C3.56549 4.64639 3.33268 4.8792 3.33268 5.16639V12.9084C3.33268 13.1956 3.56549 13.4284 3.85268 13.4284H4.73268C5.01987 13.4284 5.25268 13.1956 5.25268 12.9084V5.16639C5.25268 4.8792 5.01987 4.64639 4.73268 4.64639H3.85268ZM7.49937 7.76337C7.49937 7.47618 7.73219 7.24337 8.01937 7.24337H8.89937C9.18656 7.24337 9.41937 7.47618 9.41937 7.76337V12.9084C9.41937 13.1956 9.18656 13.4284 8.89937 13.4284H8.01938C7.73219 13.4284 7.49937 13.1956 7.49937 12.9084V7.76337ZM12.1861 9.84479C11.8989 9.84479 11.6661 10.0776 11.6661 10.3648V12.9084C11.6661 13.1956 11.8989 13.4284 12.1861 13.4284H13.0661C13.3533 13.4284 13.5861 13.1956 13.5861 12.9084V10.3648C13.5861 10.0776 13.3533 9.84479 13.0661 9.84479H12.1861Z" fill="#CAC9CA"/>
</svg>
