<svg width="17" height="16" viewBox="0 0 17 16" fill="none" xmlns="http://www.w3.org/2000/svg">
<path fill-rule="evenodd" clip-rule="evenodd" d="M7.34075 0.212891C7.18528 0.212891 7.05353 0.327352 7.03181 0.481297L6.77706 2.28667C6.34377 2.41341 5.93052 2.58717 5.54311 2.80205L4.08664 1.69778C3.96242 1.6036 3.78775 1.61556 3.67752 1.72579L2.08692 3.31638C1.97699 3.42632 1.96477 3.60041 2.05826 3.72463L3.15954 5.18777C2.94531 5.57428 2.77165 5.9865 2.64433 6.41863L0.835894 6.66736C0.681463 6.6886 0.566406 6.82057 0.566406 6.97645V9.2259C0.566406 9.38137 0.680867 9.51311 0.834812 9.53484L2.61492 9.78603C2.73827 10.2337 2.91112 10.6608 3.12721 11.0609L2.0513 12.48C1.95712 12.6042 1.96907 12.7789 2.0793 12.8891L3.6699 14.4797C3.77983 14.5897 3.95393 14.6019 4.07814 14.5084L5.46714 13.4629C5.87901 13.6992 6.32106 13.8885 6.7861 14.0238L7.02088 15.7308C7.04212 15.8852 7.17409 16.0002 7.32997 16.0002H9.57941C9.73488 16.0002 9.86663 15.8858 9.88835 15.7318L10.1271 14.0397C10.6005 13.907 11.0504 13.7183 11.4696 13.4812L12.8335 14.5153C12.9577 14.6095 13.1324 14.5976 13.2426 14.4873L14.8332 12.8967C14.9432 12.7868 14.9554 12.6127 14.8619 12.4885L13.8189 11.1028C14.046 10.6899 14.2269 10.2478 14.3546 9.78366L16.0843 9.54577C16.2387 9.52453 16.3538 9.39256 16.3538 9.23668V6.98723C16.3538 6.83176 16.2393 6.70002 16.0854 6.67829L14.328 6.43032C14.1968 5.98162 14.0156 5.55428 13.791 5.15481L14.8689 3.73312C14.963 3.6089 14.9511 3.43423 14.8409 3.324L13.2503 1.73341C13.1403 1.62347 12.9662 1.61125 12.842 1.70475L11.4018 2.78879C11.0075 2.57244 10.5868 2.39857 10.1456 2.27334L9.89928 0.482378C9.87804 0.327947 9.74608 0.212891 9.59019 0.212891H7.34075ZM10.4137 8.15391C10.4137 9.2337 9.54745 10.1046 8.48446 10.1046C7.42147 10.1046 6.55524 9.2337 6.55524 8.15391C6.55524 7.07412 7.42147 6.20326 8.48446 6.20326C9.54745 6.20326 10.4137 7.07412 10.4137 8.15391Z" fill="#CAC9CA"/>
</svg>
