<svg width="15" height="17" viewBox="0 0 15 17" fill="none" xmlns="http://www.w3.org/2000/svg">
<path fill-rule="evenodd" clip-rule="evenodd" d="M6.20868 0.311035C6.05321 0.311035 5.92146 0.425496 5.89974 0.579441L5.71788 1.86828C2.5809 2.64685 0.255859 5.48157 0.255859 8.85933C0.255859 12.8373 3.48068 16.0622 7.4587 16.0622C11.4367 16.0622 14.6615 12.8373 14.6615 8.85933C14.6615 5.48428 12.3402 2.65139 9.20706 1.87015L9.02969 0.580523C9.00844 0.426092 8.87648 0.311035 8.72059 0.311035H6.20868ZM7.0187 4.35832C6.73151 4.35832 6.4987 4.59113 6.4987 4.87832V9.83778H8.4187V4.87832C8.4187 4.59113 8.18588 4.35832 7.8987 4.35832H7.0187ZM11.8202 9.73173C12.0902 9.82982 12.2296 10.1283 12.1313 10.3983L11.8304 11.2249C11.7322 11.4948 11.4338 11.634 11.1639 11.5357L6.50357 9.83949H8.41907V8.49651L11.8202 9.73173Z" fill="#CAC9CA"/>
</svg>
