<svg width="17" height="17" viewBox="0 0 17 17" fill="none" xmlns="http://www.w3.org/2000/svg">
<path fill-rule="evenodd" clip-rule="evenodd" d="M1.89937 0.560547C1.325 0.560547 0.859375 1.02617 0.859375 1.60055V15.1205C0.859375 15.6949 1.325 16.1605 1.89937 16.1605H14.6204C15.1948 16.1605 15.6604 15.6949 15.6604 15.1205L15.6604 13.5605H6.97525C6.40087 13.5605 5.93525 13.0949 5.93525 12.5205V4.20055C5.93525 3.62617 6.40087 3.16055 6.97525 3.16055H15.6604L15.6604 1.60055C15.6604 1.02617 15.1948 0.560547 14.6204 0.560547H1.89937ZM7.89654 5.76055C7.89654 5.18617 8.36216 4.72055 8.93654 4.72055H15.0194C15.5938 4.72055 16.0594 5.18617 16.0594 5.76055V10.9605C16.0594 11.5349 15.5938 12.0005 15.0194 12.0005H8.93654C8.36216 12.0005 7.89654 11.5349 7.89654 10.9605V5.76055ZM10.4638 7.0206C10.1766 7.0206 9.94376 7.25342 9.94376 7.5406V9.1886C9.94376 9.47579 10.1766 9.7086 10.4638 9.7086H11.9304C12.2176 9.7086 12.4504 9.47579 12.4504 9.1886V7.5406C12.4504 7.25342 12.2176 7.0206 11.9304 7.0206H10.4638Z" fill="#CAC9CA"/>
</svg>
