<svg width="17" height="17" viewBox="0 0 17 17" fill="none" xmlns="http://www.w3.org/2000/svg">
<path fill-rule="evenodd" clip-rule="evenodd" d="M4.83436 0.927734C4.54717 0.927734 4.31436 1.16055 4.31436 1.44773V2.12773H4.31371V4.12528C4.31371 4.41247 4.08089 4.64528 3.79371 4.64528H3.18712C2.89993 4.64528 2.66712 4.41247 2.66712 4.12528V2.12773H1.89937C1.325 2.12773 0.859375 2.59336 0.859375 3.16773V15.4877C0.859375 16.0621 1.325 16.5277 1.89937 16.5277H15.0194C15.5938 16.5277 16.0594 16.0621 16.0594 15.4877V3.16773C16.0594 2.59336 15.5938 2.12773 15.0194 2.12773H14.8184L14.6025 1.321C14.5416 1.0936 14.3356 0.935449 14.1002 0.935449H12.6507C12.3635 0.935449 12.1307 1.16826 12.1307 1.45545V2.12773V4.12528C12.1307 4.41247 11.8979 4.64528 11.6107 4.64528H11.0041C10.7169 4.64528 10.4841 4.41247 10.4841 4.12528V2.12773H6.99883L6.78503 1.31538C6.72491 1.08695 6.51837 0.927734 6.28216 0.927734H4.83436ZM11.7673 7.93966C11.7673 7.65247 12.0001 7.41966 12.2873 7.41966H13.9353C14.2225 7.41966 14.4553 7.65247 14.4553 7.93966V9.58766C14.4553 9.87485 14.2225 10.1077 13.9353 10.1077H12.2873C12.0001 10.1077 11.7673 9.87485 11.7673 9.58766V7.93966ZM7.71196 7.41966C7.42477 7.41966 7.19196 7.65247 7.19196 7.93966V9.58766C7.19196 9.87485 7.42477 10.1077 7.71196 10.1077H9.35996C9.64715 10.1077 9.87996 9.87485 9.87996 9.58766V7.93966C9.87996 7.65247 9.64715 7.41966 9.35996 7.41966H7.71196ZM2.61664 7.93966C2.61664 7.65247 2.84945 7.41966 3.13664 7.41966H4.78464C5.07183 7.41966 5.30464 7.65247 5.30464 7.93966V9.58766C5.30464 9.87485 5.07183 10.1077 4.78464 10.1077H3.13664C2.84945 10.1077 2.61664 9.87485 2.61664 9.58766V7.93966ZM7.71196 12.1822C7.42477 12.1822 7.19196 12.415 7.19196 12.7022V14.3502C7.19196 14.6374 7.42477 14.8702 7.71196 14.8702H9.35996C9.64715 14.8702 9.87996 14.6374 9.87996 14.3502V12.7022C9.87996 12.415 9.64715 12.1822 9.35996 12.1822H7.71196ZM2.61664 12.7022C2.61664 12.415 2.84945 12.1822 3.13664 12.1822H4.78464C5.07183 12.1822 5.30464 12.415 5.30464 12.7022V14.3502C5.30464 14.6374 5.07183 14.8702 4.78464 14.8702H3.13664C2.84945 14.8702 2.61664 14.6374 2.61664 14.3502V12.7022Z" fill="#CAC9CA"/>
</svg>
