<svg width="16" height="16" viewBox="0 0 16 16" fill="none" xmlns="http://www.w3.org/2000/svg">
<path fill-rule="evenodd" clip-rule="evenodd" d="M1.99312 0.229004C1.41875 0.229004 0.953125 0.694627 0.953125 1.269V13.829C0.953125 14.7127 1.66947 15.429 2.55313 15.429H4.47047H12.001H14.3668C15.2505 15.429 15.9668 14.7127 15.9668 13.829V4.45748C15.9668 3.8831 15.5012 3.41748 14.9268 3.41748H13.041V1.269C13.041 0.694628 12.5754 0.229004 12.001 0.229004H1.99312ZM2.80791 2.79195C2.80791 2.50476 3.04072 2.27195 3.32791 2.27195H10.7078C10.995 2.27195 11.2278 2.50476 11.2278 2.79195V5.30891C11.2278 5.59609 10.995 5.82891 10.7078 5.82891H3.32791C3.04072 5.82891 2.80791 5.59609 2.80791 5.30891V2.79195ZM3.32791 7.829C3.04072 7.829 2.80791 8.06182 2.80791 8.349V9.077C2.80791 9.36419 3.04072 9.597 3.32791 9.597H10.7078C10.995 9.597 11.2278 9.36419 11.2278 9.077V8.349C11.2278 8.06182 10.995 7.829 10.7078 7.829H3.32791ZM2.80791 11.6245C2.80791 11.3374 3.04072 11.1045 3.32791 11.1045H8.53273C8.81992 11.1045 9.05273 11.3374 9.05273 11.6245V12.3525C9.05273 12.6397 8.81992 12.8725 8.53273 12.8725H3.32791C3.04072 12.8725 2.80791 12.6397 2.80791 12.3525V11.6245ZM14.1672 5.82891H12.3992V12.3741C12.3992 12.8623 12.795 13.2581 13.2832 13.2581C13.7714 13.2581 14.1672 12.8623 14.1672 12.3741V5.82891Z" fill="#CAC9CA"/>
</svg>
