<svg width="35" height="35" viewBox="0 0 35 35" fill="none" xmlns="http://www.w3.org/2000/svg">
<rect width="35" height="35" rx="2" fill="#FB9E32"/>
<path fill-rule="evenodd" clip-rule="evenodd" d="M25.3633 16.4283C25.7063 14.1356 23.9606 12.903 21.5736 12.0808L22.3479 8.97494L20.4573 8.50379L19.7035 11.5278C19.2065 11.4039 18.696 11.2871 18.1888 11.1713L18.948 8.1274L17.0586 7.65625L16.2837 10.761C15.8723 10.6673 15.4685 10.5747 15.0765 10.4773L15.0786 10.4676L12.4714 9.81656L11.9685 11.8358C11.9685 11.8358 13.3712 12.1572 13.3416 12.1772C14.1073 12.3683 14.2456 12.875 14.2225 13.2767L13.3405 16.8149C13.3933 16.8284 13.4616 16.8478 13.537 16.8779L13.473 16.8619C13.4291 16.851 13.3837 16.8396 13.3373 16.8284L12.101 21.7849C12.0073 22.0176 11.7698 22.3665 11.2346 22.234C11.2534 22.2615 9.86041 21.891 9.86041 21.891L8.92188 24.0551L11.3821 24.6684C11.6569 24.7373 11.9283 24.808 12.1969 24.8781C12.3758 24.9247 12.5534 24.9711 12.7299 25.0163L11.9475 28.1576L13.8359 28.6288L14.6107 25.5208C15.1266 25.6608 15.6273 25.79 16.1173 25.9117L15.3452 29.0052L17.2357 29.4763L18.0181 26.3409C21.2419 26.9509 23.666 26.7049 24.6864 23.7891C25.5086 21.4414 24.6455 20.0872 22.9493 19.2041C24.1846 18.9192 25.115 18.1067 25.3633 16.4283ZM21.0437 22.4855C20.5077 24.6394 17.1363 23.7489 15.5937 23.3415L15.5936 23.3415C15.4549 23.3048 15.3309 23.2721 15.2251 23.2458L16.2633 19.084C16.3921 19.1162 16.5494 19.1515 16.7277 19.1915L16.7277 19.1915C18.3232 19.5495 21.593 20.2832 21.0437 22.4855ZM17.0483 17.2601C18.3344 17.6034 21.1398 18.352 21.6285 16.3944C22.1275 14.392 19.4009 13.7884 18.0693 13.4936C17.9195 13.4605 17.7873 13.4312 17.6794 13.4043L16.7382 17.1789C16.8271 17.2011 16.9314 17.2289 17.0483 17.2601Z" fill="white"/>
</svg>
