<svg width="537" height="111" viewBox="0 0 537 111" fill="none" xmlns="http://www.w3.org/2000/svg">
<path d="M0 107.402H13.1621L28.0929 109L40.2854 105.835H58.6767L62.3619 109L74.0915 105.835L86.6143 109L92.6186 104.206C92.6186 104.206 97.3744 103.801 99.6738 103.444C101.973 103.087 115.94 96.6641 116.592 96.7291C117.244 96.7941 127.707 94.6318 127.707 94.6318H133.234C133.234 94.6318 138.004 97.8789 138.959 97.9186C139.913 97.9584 151.649 94.6318 151.649 94.6318L173.965 105.835L178.902 100.765H184.853L196.984 91.0089L204.033 91.9431L220.106 87.6918L225.434 89.1759C225.434 89.1759 230.23 87.0271 231.223 87.6918C232.216 88.3566 238.198 89.9605 238.198 89.9605L260.597 76.2812L277.502 75.6175L283.952 67.8655L307.144 61.3288L319.027 21.2484L330.441 35.4911H336.636L341.87 22.369L349.085 18.4795L353.328 23.9208H360.647L371.486 2L382.962 4.6064L401.234 32.2026L405.812 44.3335L412.963 39.1325L417.847 43.4817L424.538 44.3335L429.727 29.8516L440.287 39.1325L447.137 39.9137L452.424 52.8247C452.424 52.8247 458.422 43.5791 458.884 44.3335C459.346 45.0879 465.319 47.7435 465.319 47.7435L471.832 36.4101L482.389 34.0434C482.389 34.0434 487.238 21.8381 487.887 21.2484C488.535 20.6586 494.031 18.4795 494.031 18.4795L511.001 39.9137L517.181 36.4101L522.913 47.7435L536 41.633" stroke="#7AC231" stroke-width="2"/>
</svg>
